PathFileType	4	(X/Y/Z)	/Users/itak/Documents/Research/Walk-IL/dataset/trc/00118_00007.trc
DataRate	CameraRate	NumFrames	NumMarkers	Units	OrigDataRate	OrigDataStartFrame	OrigNumFrames
100.000000	100.000000	4	55	mm	100.000000	187	750
Frame#	Time	RPSI			LPSI			L3			STRN			T10			C7			CLAV			RBAK			LBAK			LSHO			LUPA			LAEL			LAOL			LWTS			LWPS			LFRA			LIFD			LHPS			LHTS			RSHO			RUPA			RAEL			RAOL			RWTS			RWPS			RFRA			RIFD			RHTS			RHPS			RBHD			LFHD			RFHD			LBHD			LHIP			RHIP			RASI			LASI			LKNE			LTHI			LANK			LTIP			LTOE			LMT1			LMT5			LHEE			RKNE			RANK			RTIP			RTOE			RMT1			RMT5			RHEE			RTHI			*53			*54			
		X1	Y1	Z1	X2	Y2	Z2	X3	Y3	Z3	X4	Y4	Z4	X5	Y5	Z5	X6	Y6	Z6	X7	Y7	Z7	X8	Y8	Z8	X9	Y9	Z9	X10	Y10	Z10	X11	Y11	Z11	X12	Y12	Z12	X13	Y13	Z13	X14	Y14	Z14	X15	Y15	Z15	X16	Y16	Z16	X17	Y17	Z17	X18	Y18	Z18	X19	Y19	Z19	X20	Y20	Z20	X21	Y21	Z21	X22	Y22	Z22	X23	Y23	Z23	X24	Y24	Z24	X25	Y25	Z25	X26	Y26	Z26	X27	Y27	Z27	X28	Y28	Z28	X29	Y29	Z29	X30	Y30	Z30	X31	Y31	Z31	X32	Y32	Z32	X33	Y33	Z33	X34	Y34	Z34	X35	Y35	Z35	X36	Y36	Z36	X37	Y37	Z37	X38	Y38	Z38	X39	Y39	Z39	X40	Y40	Z40	X41	Y41	Z41	X42	Y42	Z42	X43	Y43	Z43	X44	Y44	Z44	X45	Y45	Z45	X46	Y46	Z46	X47	Y47	Z47	X48	Y48	Z48	X49	Y49	Z49	X50	Y50	Z50	X51	Y51	Z51	X52	Y52	Z52	X53	Y53	Z53	X54	Y54	Z54	X55	Y55	Z55	

188	1.87	543.138916015625	1113.473999023438	1026.457153320312	472.1595458984375	1117.586791992188	909.8580932617188	499.2167053222656	1154.91015625	967.3192749023438	694.9454956054688	1346.066284179688	849.4434814453125	470.8697509765625	1309.732177734375	975.241455078125	508.1704711914062	1598.70947265625	932.0433959960938	668.8381958007812	1482.751586914062	859.8568115234375	495.4552917480469	1419.2216796875	1041.154907226562	453.1508483886719	1578.572998046875	845.3693237304688	500.076171875	1558.772338867188	747.71240234375	457.0728759765625	1430.149658203125	687.62109375	483.5115356445312	1215.6337890625	638.7435302734375	450.0661926269531	1188.93408203125	716.870361328125	640.9420166015625	987.6019287109375	608.8228149414062	563.1624145507812	943.253173828125	613.29052734375	517.5286865234375	1105.962158203125	614.6607666015625	704.0003662109375	804.3900146484375	601.4286499023438	605.2022094726562	877.4315795898438	592.185302734375	669.5999755859375	905.2606811523438	581.8584594726562	644.2498779296875	1577.625732421875	1066.994506835938	653.8600463867188	1507.077392578125	1134.2490234375	628.8685302734375	1216.871459960938	1177.248046875	579.5303955078125	1214.512939453125	1088.725219726562	740.39404296875	964.6089477539062	1121.090087890625	680.8867797851562	952.7652587890625	1177.772583007812	651.1190795898438	1142.372802734375	1185.250854492188	749.0038452148438	769.8787841796875	1101.865356445312	765.4202270507812	855.5413208007812	1119.865844726562	712.5816650390625	851.5267333984375	1171.146484375	614.2796630859375	1778.380004882812	968.8041381835938	610.2158203125	1814.169677734375	750.6578369140625	709.0640869140625	1840.759155273438	830.5321655273438	505.2123107910156	1755.677978515625	889.787353515625	491.9900512695312	1024.588256835938	770.183837890625	717.825927734375	1021.91845703125	1052.119262695312	752.9110717773438	1093.004150390625	966.2182006835938	604.3565673828125	1087.62353515625	747.09375	569.818115234375	522.290283203125	851.7034301757812	524.1495361328125	663.3495483398438	812.283935546875	501.8231201171875	37.32543182373047	982.6451416015625	488.4067687988281	274.8726501464844	907.268310546875	734.702392578125	37.79305267333984	940.9893798828125	675.722412109375	41.87918853759766	1003.662292480469	604.5122680664062	40.22504043579102	910.5794677734375	463.7606811523438	40.3420295715332	1065.7744140625	848.0857543945312	569.523193359375	902.3141479492188	767.1355590820312	75.91998291015625	1076.359130859375	842.469482421875	438.7526245117188	949.9228515625	904.2908935546875	67.40057373046875	890.2468872070312	832.7828979492188	55.66290283203125	894.7452392578125	880.118408203125	64.10240173339844	1006.077758789062	692.065673828125	81.0826416015625	1077.24169921875	793.7291259765625	831.6121215820312	991.0349731445312	nan	nan	nan	nan	nan	nan	
189	1.88	551.4419555664062	1113.02197265625	1021.97314453125	478.0531311035156	1116.992431640625	906.4553833007812	505.8455200195312	1154.50048828125	963.3618774414062	700.0711059570312	1345.281494140625	842.6534423828125	477.8208618164062	1309.192260742188	971.482666015625	514.6632080078125	1598.03515625	927.39404296875	674.3480224609375	1482.003295898438	853.4315795898438	503.0873718261719	1418.726196289062	1036.758056640625	458.6440124511719	1577.958740234375	841.2481689453125	504.4786682128906	1558.083129882812	743.2207641601562	461.3817138671875	1429.495849609375	683.181884765625	489.0386047363281	1215.247924804688	633.52880859375	456.4959106445312	1187.911865234375	711.908935546875	649.2288208007812	989.5382690429688	601.5360107421875	572.1531982421875	944.0678100585938	606.3051147460938	524.2645874023438	1106.168823242188	608.6702270507812	714.9031372070312	807.302734375	592.828125	614.97900390625	878.9013671875	584.615478515625	678.9088745117188	907.7579956054688	573.97021484375	652.2975463867188	1576.989379882812	1060.757934570312	662.576171875	1506.54248046875	1127.981079101562	637.4205932617188	1216.434814453125	1171.733764648438	586.8824462890625	1214.124877929688	1083.551879882812	747.07373046875	963.5786743164062	1114.722900390625	688.17333984375	952.1378173828125	1172.159912109375	659.4450073242188	1141.93359375	1179.530639648438	754.438232421875	768.7484741210938	1095.863037109375	771.5267333984375	854.3668823242188	1113.435302734375	719.3367919921875	850.7525024414062	1165.40966796875	621.1864624023438	1777.585693359375	962.9671630859375	615.5121459960938	1813.360595703125	744.8626098632812	715.0043334960938	1839.8076171875	823.9403686523438	511.6991882324219	1755.045654296875	884.8436889648438	495.9739379882812	1023.560485839844	766.7774047851562	726.5160522460938	1021.822692871094	1044.961791992188	759.9949340820312	1092.638671875	958.2279052734375	607.8894653320312	1086.68994140625	741.5574951171875	573.2200927734375	521.4430541992188	849.1495971679688	527.62841796875	662.5442504882812	809.404541015625	501.8567810058594	37.43831634521484	982.6492309570312	490.3467102050781	274.6454772949219	906.17431640625	734.8240356445312	37.62606048583984	940.9515380859375	675.7738037109375	41.77182006835938	1003.751892089844	604.5907592773438	40.26972579956055	910.5863647460938	463.7876586914062	40.57883453369141	1065.787353515625	856.8409423828125	571.1144409179688	891.4367065429688	792.51171875	70.74247741699219	1052.545288085938	855.576904296875	439.0957336425781	935.6045532226562	924.6126708984375	70.59818267822266	862.541259765625	853.5133666992188	57.14685821533203	868.7275390625	903.717529296875	63.47406005859375	978.7882080078125	717.3804321289062	74.09825134277344	1055.624755859375	802.4059448242188	832.2478637695312	982.356689453125	nan	nan	nan	nan	nan	nan	
190	1.89	559.85107421875	1112.444946289062	1017.34814453125	483.9719848632812	1116.345947265625	902.9483032226562	512.5602416992188	1153.966064453125	959.3104858398438	705.180908203125	1344.395874023438	835.7872314453125	484.8168029785156	1308.565185546875	967.6718139648438	521.2105712890625	1597.27685546875	922.6947631835938	679.84912109375	1481.154541015625	846.9232788085938	510.826904296875	1418.120971679688	1032.272827148438	464.1342163085938	1577.23876953125	837.10107421875	508.8661804199219	1557.281005859375	738.6954345703125	465.6573486328125	1428.708984375	678.789306640625	494.4530944824219	1214.718994140625	628.3946533203125	462.821044921875	1186.799072265625	707.0538940429688	657.2680053710938	991.2957153320312	594.35986328125	580.87841796875	944.7466430664062	599.464599609375	530.8256225585938	1106.234252929688	602.7774047851562	725.4522094726562	810.0515747070312	584.3897705078125	624.4786376953125	880.2947998046875	577.1568603515625	687.9138793945312	910.0719604492188	566.2185668945312	660.3991088867188	1576.274780273438	1054.400512695312	671.3745727539062	1505.938110351562	1121.591064453125	646.0568237304688	1215.948364257812	1166.1162109375	594.3645629882812	1213.659545898438	1078.416381835938	753.8419189453125	962.5020141601562	1108.246215820312	695.6437377929688	951.461669921875	1166.480834960938	667.9119262695312	1141.427978515625	1173.749755859375	759.9594116210938	767.5725708007812	1089.763916015625	777.7348022460938	853.1498413085938	1106.880493164062	726.2543334960938	849.9285888671875	1159.591552734375	628.1032104492188	1776.683349609375	957.0336303710938	620.8130493164062	1812.457275390625	739.0013427734375	720.9536743164062	1838.74853515625	817.2644653320312	518.2393188476562	1754.318603515625	879.839111328125	499.9599914550781	1022.453186035156	763.2723999023438	735.2048950195312	1021.614990234375	1037.728637695312	767.0501708984375	1092.144165039062	950.1380004882812	611.3857421875	1085.683959960938	735.983642578125	576.8049926757812	520.5350952148438	846.4710693359375	531.3283081054688	661.6807250976562	806.3790283203125	501.8928833007812	37.53995895385742	982.6444702148438	492.4077453613281	274.3757019042969	905.0039672851562	734.9769897460938	37.4615592956543	940.8727416992188	675.8348388671875	41.66608047485352	1003.825744628906	604.6681518554688	40.30515289306641	910.5833129882812	463.8172607421875	40.82933807373047	1065.802978515625	865.2273559570312	572.3886108398438	880.9688720703125	816.9058837890625	65.93939208984375	1027.88232421875	868.1283569335938	439.2863159179688	921.4420166015625	943.744873046875	74.18458557128906	834.4283447265625	873.1227416992188	59.08237075805664	842.19775390625	926.15673828125	63.18294143676758	950.8695068359375	741.77490234375	67.46228790283203	1033.033081054688	810.8658447265625	832.6406860351562	973.7726440429688	nan	nan	nan	nan	nan	nan	
191	1.9	568.29443359375	1111.728515625	1012.572631835938	489.982177734375	1115.614013671875	899.3313598632812	519.3885498046875	1153.274047851562	955.158203125	710.284912109375	1343.40576171875	828.8434448242188	491.8622741699219	1307.838745117188	963.7927856445312	527.8101196289062	1596.426391601562	917.9417724609375	685.3414916992188	1480.200927734375	840.3314819335938	518.6715698242188	1417.393310546875	1027.700805664062	469.6199951171875	1576.404296875	832.9329833984375	513.2321166992188	1556.361450195312	734.1356201171875	469.8901062011719	1427.7783203125	674.4758911132812	499.7572631835938	1214.042602539062	623.334228515625	469.0372314453125	1185.58984375	702.2982177734375	665.0560913085938	992.8568725585938	587.2952270507812	589.3272094726562	945.271484375	592.7640991210938	537.2117919921875	1106.147338867188	596.97802734375	735.640380859375	812.6121215820312	576.1054077148438	633.6756591796875	881.5545654296875	569.830078125	696.6092529296875	912.182373046875	558.6023559570312	668.5498046875	1575.470703125	1047.922729492188	680.2495727539062	1505.249389648438	1115.07421875	654.7767944335938	1215.402709960938	1160.392700195312	602.0289306640625	1213.098266601562	1073.333862304688	760.7053833007812	961.3692016601562	1101.6640625	703.2965698242188	950.7249145507812	1160.725708007812	676.5056762695312	1140.843505859375	1167.899658203125	765.593505859375	766.3450317382812	1083.57373046875	784.05810546875	851.8843994140625	1100.210693359375	733.3385009765625	849.0445556640625	1153.6875	635.0276489257812	1775.668334960938	951.0062255859375	626.1138916015625	1811.455810546875	733.0713500976562	726.9071655273438	1837.584106445312	810.508056640625	524.8104248046875	1753.48974609375	874.7697143554688	503.958984375	1021.26513671875	759.6571044921875	743.90771484375	1021.297973632812	1030.427612304688	774.080078125	1091.512329101562	941.9529418945312	614.8616943359375	1084.598388671875	730.3660278320312	580.5491333007812	519.561279296875	843.6500244140625	535.2183227539062	660.750732421875	803.195556640625	501.9284362792969	37.6303825378418	982.6338500976562	494.5760803222656	274.0638427734375	903.7534790039062	735.1577758789062	37.29986572265625	940.7620849609375	675.9076538085938	41.57077789306641	1003.875122070312	604.7379150390625	40.32690811157227	910.5734252929688	463.8490600585938	41.10725784301758	1065.814575195312	873.2552490234375	573.3181762695312	870.9149169921875	840.2715454101562	61.53848266601562	1002.458801269531	880.119140625	439.3139038085938	907.471923828125	961.68310546875	78.17446136474609	806.0265502929688	891.6027221679688	61.48031997680664	815.269775390625	947.41650390625	63.27412796020508	922.434814453125	765.21728515625	61.24646759033203	1009.573974609375	819.112548828125	832.775390625	965.2859497070312	nan	nan	nan	nan	nan	nan	
